<svg id="visual" viewBox="0 0 1500 1500" width="1500" height="1500" xmlns="http://www.w3.org/2000/svg" xmlns:xlink="http://www.w3.org/1999/xlink" version="1.1"><path d="M1244 1500L1209 1464.3C1174 1428.7 1104 1357.3 1109 1285.8C1114 1214.3 1194 1142.7 1196.5 1071.2C1199 999.7 1124 928.3 1124 857C1124 785.7 1199 714.3 1209 643C1219 571.7 1164 500.3 1151.5 428.8C1139 357.3 1169 285.7 1161.5 214.2C1154 142.7 1109 71.3 1086.5 35.7L1064 0L1500 0L1500 35.7C1500 71.3 1500 142.7 1500 214.2C1500 285.7 1500 357.3 1500 428.8C1500 500.3 1500 571.7 1500 643C1500 714.3 1500 785.7 1500 857C1500 928.3 1500 999.7 1500 1071.2C1500 1142.7 1500 1214.3 1500 1285.8C1500 1357.3 1500 1428.7 1500 1464.3L1500 1500Z" fill="#b20000"></path><path d="M1049 1500L1011.5 1464.3C974 1428.7 899 1357.3 899 1285.8C899 1214.3 974 1142.7 981.5 1071.2C989 999.7 929 928.3 939 857C949 785.7 1029 714.3 1049 643C1069 571.7 1029 500.3 1019 428.8C1009 357.3 1029 285.7 999 214.2C969 142.7 889 71.3 849 35.7L809 0L1065 0L1087.5 35.7C1110 71.3 1155 142.7 1162.5 214.2C1170 285.7 1140 357.3 1152.5 428.8C1165 500.3 1220 571.7 1210 643C1200 714.3 1125 785.7 1125 857C1125 928.3 1200 999.7 1197.5 1071.2C1195 1142.7 1115 1214.3 1110 1285.8C1105 1357.3 1175 1428.7 1210 1464.3L1245 1500Z" fill="#cc5035"></path><path d="M854 1500L809 1464.3C764 1428.7 674 1357.3 639 1285.8C604 1214.3 624 1142.7 616.5 1071.2C609 999.7 574 928.3 591.5 857C609 785.7 679 714.3 709 643C739 571.7 729 500.3 736.5 428.8C744 357.3 769 285.7 754 214.2C739 142.7 684 71.3 656.5 35.7L629 0L810 0L850 35.7C890 71.3 970 142.7 1000 214.2C1030 285.7 1010 357.3 1020 428.8C1030 500.3 1070 571.7 1050 643C1030 714.3 950 785.7 940 857C930 928.3 990 999.7 982.5 1071.2C975 1142.7 900 1214.3 900 1285.8C900 1357.3 975 1428.7 1012.5 1464.3L1050 1500Z" fill="#e18168"></path><path d="M719 1500L659 1464.3C599 1428.7 479 1357.3 449 1285.8C419 1214.3 479 1142.7 469 1071.2C459 999.7 379 928.3 376.5 857C374 785.7 449 714.3 481.5 643C514 571.7 504 500.3 526.5 428.8C549 357.3 604 285.7 596.5 214.2C589 142.7 519 71.3 484 35.7L449 0L630 0L657.5 35.7C685 71.3 740 142.7 755 214.2C770 285.7 745 357.3 737.5 428.8C730 500.3 740 571.7 710 643C680 714.3 610 785.7 592.5 857C575 928.3 610 999.7 617.5 1071.2C625 1142.7 605 1214.3 640 1285.8C675 1357.3 765 1428.7 810 1464.3L855 1500Z" fill="#f1b09e"></path><path d="M0 1500L0 1464.3C0 1428.7 0 1357.3 0 1285.8C0 1214.3 0 1142.7 0 1071.2C0 999.7 0 928.3 0 857C0 785.7 0 714.3 0 643C0 571.7 0 500.3 0 428.8C0 357.3 0 285.7 0 214.2C0 142.7 0 71.3 0 35.7L0 0L450 0L485 35.7C520 71.3 590 142.7 597.5 214.2C605 285.7 550 357.3 527.5 428.8C505 500.3 515 571.7 482.5 643C450 714.3 375 785.7 377.5 857C380 928.3 460 999.7 470 1071.2C480 1142.7 420 1214.3 450 1285.8C480 1357.3 600 1428.7 660 1464.3L720 1500Z" fill="#fcdfd7"></path></svg>